<?xml version="1.0" encoding="UTF-8"?>
<!DOCTYPE svg PUBLIC "-//W3C//DTD SVG 1.1//EN" "http://www.w3.org/Graphics/SVG/1.1/DTD/svg11.dtd">
<svg xmlns="http://www.w3.org/2000/svg" version="1.1" width="85px" height="72px" style="shape-rendering:geometricPrecision; text-rendering:geometricPrecision; image-rendering:optimizeQuality; fill-rule:evenodd; clip-rule:evenodd" xmlns:xlink="http://www.w3.org/1999/xlink">
<g><path style="opacity:0.81" fill="#05a3c9" d="M 40.5,4.5 C 46.3579,6.09562 51.6912,8.76228 56.5,12.5C 53.1756,14.1622 49.8422,15.8289 46.5,17.5C 43.6236,14.9199 40.7903,14.9199 38,17.5C 34.2949,16.0641 30.7949,14.2307 27.5,12C 31.8961,9.47312 36.2295,6.97312 40.5,4.5 Z"/></g>
<g><path style="opacity:0.82" fill="#05a3c9" d="M 20.5,14.5 C 28.2343,16.0336 35.2343,19.2003 41.5,24C 39.0393,26.0544 36.2059,27.5544 33,28.5C 30.1939,27.4303 27.5272,26.097 25,24.5C 24.6667,27.1667 24.3333,29.8333 24,32.5C 21.2267,33.9263 18.3934,35.2596 15.5,36.5C 14.1667,30.1667 14.1667,23.8333 15.5,17.5C 17.3964,16.7255 19.063,15.7255 20.5,14.5 Z"/></g>
<g><path style="opacity:0.869" fill="#05a3c9" d="M 59.5,14.5 C 69.6618,15.6502 72.3285,20.8168 67.5,30C 54.1667,36 40.8333,42 27.5,48C 28.6853,49.353 30.0186,50.5197 31.5,51.5C 26.752,57.0222 21.4186,57.6889 15.5,53.5C 14.2052,49.6197 14.2052,45.7864 15.5,42C 29.1667,35.6667 42.8333,29.3333 56.5,23C 54.6951,22.028 53.0284,20.8613 51.5,19.5C 54.2308,17.8084 56.8975,16.1417 59.5,14.5 Z"/></g>
<g><path style="opacity:0.821" fill="#05a3c9" d="M 67.5,34.5 C 68.8164,37.0866 69.483,40.0866 69.5,43.5C 69.3333,46.5 69.1667,49.5 69,52.5C 66.4136,54.5448 63.5802,56.2115 60.5,57.5C 54.1667,54 47.8333,50.5 41.5,47C 44.6061,45.3635 47.7728,43.8635 51,42.5C 53.8061,43.5697 56.4728,44.903 59,46.5C 59.5022,43.4869 60.0022,40.4869 60.5,37.5C 63.2406,37.2927 65.5739,36.2927 67.5,34.5 Z"/></g>
<g><path style="opacity:0.819" fill="#05a3c9" d="M 35.5,54.5 C 37.9363,54.317 40.103,54.9837 42,56.5C 47.3358,53.7209 52.1691,54.5542 56.5,59C 51.8864,61.8904 47.0531,64.3904 42,66.5C 36.9469,64.3904 32.1136,61.8904 27.5,59C 30.3591,57.7399 33.0258,56.2399 35.5,54.5 Z"/></g>
</svg>
