<?xml version="1.0" encoding="UTF-8"?>
<!DOCTYPE svg PUBLIC "-//W3C//DTD SVG 1.1//EN" "http://www.w3.org/Graphics/SVG/1.1/DTD/svg11.dtd">
<svg xmlns="http://www.w3.org/2000/svg" version="1.1" width="1000px" height="1080px" style="shape-rendering:geometricPrecision; text-rendering:geometricPrecision; image-rendering:optimizeQuality; fill-rule:evenodd; clip-rule:evenodd" xmlns:xlink="http://www.w3.org/1999/xlink">
<g><path style="opacity:1" fill="#6f6f72" d="M 303.5,471.5 C 303.5,472.833 303.5,474.167 303.5,475.5C 306.082,475.025 308.082,475.692 309.5,477.5C 308.833,477.167 308.167,476.833 307.5,476.5C 306.833,477.167 306.167,477.833 305.5,478.5C 305.289,476.576 304.623,476.243 303.5,477.5C 303.167,477.5 302.833,477.5 302.5,477.5C 301.833,474.833 301.167,474.833 300.5,477.5C 300.167,477.5 299.833,477.5 299.5,477.5C 299.158,476.662 298.492,476.328 297.5,476.5C 298.038,474.883 298.371,473.216 298.5,471.5C 300.167,471.5 301.833,471.5 303.5,471.5 Z"/></g>
<g><path style="opacity:0.933" fill="#caccd1" d="M 322.5,482.5 C 320.052,483.473 317.385,483.806 314.5,483.5C 314.167,483.5 313.833,483.5 313.5,483.5C 312.167,481.5 310.833,479.5 309.5,477.5C 308.082,475.692 306.082,475.025 303.5,475.5C 303.5,474.167 303.5,472.833 303.5,471.5C 306.176,470.992 308.843,470.825 311.5,471C 312.767,472.796 312.767,474.629 311.5,476.5C 313.074,477.984 314.407,479.651 315.5,481.5C 317.743,482.474 320.076,482.808 322.5,482.5 Z"/></g>
<g><path style="opacity:1" fill="#dadadd" d="M 305.5,478.5 C 305.833,665.835 305.5,853.168 304.5,1040.5C 303.5,852.835 303.167,665.168 303.5,477.5C 304.623,476.243 305.289,476.576 305.5,478.5 Z"/></g>
<g><path style="opacity:0.309" fill="#dbb9bf" d="M 718.5,501.5 C 718.167,501.5 717.833,501.5 717.5,501.5C 717.5,501.167 717.5,500.833 717.5,500.5C 717.5,494.833 717.5,489.167 717.5,483.5C 644.833,483.5 572.167,483.5 499.5,483.5C 499.167,483.5 498.833,483.5 498.5,483.5C 447.331,483.832 396.331,483.499 345.5,482.5C 469.737,482.832 593.903,482.499 718,481.5C 718.227,487.704 718.727,493.871 719.5,500C 719.43,500.765 719.097,501.265 718.5,501.5 Z"/></g>
<g><path style="opacity:1" fill="#2b3760" d="M 322.5,482.5 C 330.167,482.5 337.833,482.5 345.5,482.5C 396.331,483.499 447.331,483.832 498.5,483.5C 498.5,489.5 498.5,495.5 498.5,501.5C 498.5,507.5 498.5,513.5 498.5,519.5C 498.5,525.5 498.5,531.5 498.5,537.5C 498.5,537.833 498.5,538.167 498.5,538.5C 498.5,544.167 498.5,549.833 498.5,555.5C 498.5,561.833 498.5,568.167 498.5,574.5C 498.5,580.5 498.5,586.5 498.5,592.5C 498.5,598.167 498.5,603.833 498.5,609.5C 437.167,609.5 375.833,609.5 314.5,609.5C 314.5,567.5 314.5,525.5 314.5,483.5C 317.385,483.806 320.052,483.473 322.5,482.5 Z"/></g>
<g><path style="opacity:1" fill="#cc2127" d="M 499.5,485.5 C 571.833,485.5 644.167,485.5 716.5,485.5C 716.5,490.167 716.5,494.833 716.5,499.5C 644.167,499.5 571.833,499.5 499.5,499.5C 499.5,494.833 499.5,490.167 499.5,485.5 Z"/></g>
<g><path style="opacity:1" fill="#dbdde3" d="M 359.5,497.5 C 361.176,498.183 361.843,499.517 361.5,501.5C 363.288,501.215 364.955,501.548 366.5,502.5C 365.758,503.287 364.925,503.953 364,504.5C 363.805,506.207 363.805,507.874 364,509.5C 361.84,506.919 359.674,506.919 357.5,509.5C 356.355,508.224 356.355,506.891 357.5,505.5C 356.737,504.281 355.737,503.281 354.5,502.5C 357.785,502.302 359.452,500.635 359.5,497.5 Z"/></g>
<g><path style="opacity:1" fill="#c91a1f" d="M 499.5,483.5 C 572.167,483.5 644.833,483.5 717.5,483.5C 717.5,489.167 717.5,494.833 717.5,500.5C 644.665,500.833 571.998,500.499 499.5,499.5C 571.833,499.5 644.167,499.5 716.5,499.5C 716.5,494.833 716.5,490.167 716.5,485.5C 644.167,485.5 571.833,485.5 499.5,485.5C 499.5,484.833 499.5,484.167 499.5,483.5 Z"/></g>
<g><path style="opacity:1" fill="#d03e45" d="M 498.5,483.5 C 498.833,483.5 499.167,483.5 499.5,483.5C 499.5,484.167 499.5,484.833 499.5,485.5C 499.5,490.167 499.5,494.833 499.5,499.5C 571.998,500.499 644.665,500.833 717.5,500.5C 717.5,500.833 717.5,501.167 717.5,501.5C 644.5,501.5 571.5,501.5 498.5,501.5C 498.5,495.5 498.5,489.5 498.5,483.5 Z"/></g>
<g><path style="opacity:1" fill="#dcdee5" d="M 389.5,497.5 C 391.104,498.287 391.771,499.62 391.5,501.5C 393.288,501.215 394.955,501.548 396.5,502.5C 395.758,503.287 394.925,503.953 394,504.5C 394.046,506.313 393.88,507.979 393.5,509.5C 391.287,506.92 389.12,506.92 387,509.5C 386.907,506.993 386.074,504.826 384.5,503C 385.793,502.51 387.127,502.343 388.5,502.5C 388.629,500.784 388.962,499.117 389.5,497.5 Z"/></g>
<g><path style="opacity:1" fill="#e0e2e8" d="M 419.5,497.5 C 420.249,498.531 420.915,499.698 421.5,501C 427.718,501.43 428.051,502.93 422.5,505.5C 423.428,506.768 423.595,508.101 423,509.5C 420.88,506.92 418.713,506.92 416.5,509.5C 415.355,508.224 415.355,506.891 416.5,505.5C 415.737,504.281 414.737,503.281 413.5,502.5C 415.045,501.548 416.712,501.215 418.5,501.5C 418.433,500.041 418.766,498.708 419.5,497.5 Z"/></g>
<g><path style="opacity:1" fill="#d9dbe2" d="M 448.5,497.5 C 450.026,498.105 451.026,499.271 451.5,501C 455.659,501.39 456.159,502.556 453,504.5C 452.805,506.207 452.805,507.874 453,509.5C 450.778,506.956 448.611,506.956 446.5,509.5C 445.355,508.224 445.355,506.891 446.5,505.5C 445.737,504.281 444.737,503.281 443.5,502.5C 445.045,501.548 446.712,501.215 448.5,501.5C 448.5,500.167 448.5,498.833 448.5,497.5 Z"/></g>
<g><path style="opacity:1" fill="#d9dce3" d="M 478.5,497.5 C 479.876,500.281 482.209,501.947 485.5,502.5C 484.758,503.287 483.925,503.953 483,504.5C 483.046,506.313 482.88,507.979 482.5,509.5C 480.287,506.92 478.12,506.92 476,509.5C 475.849,506.881 475.015,504.547 473.5,502.5C 476.379,501.92 478.046,500.253 478.5,497.5 Z"/></g>
<g><path style="opacity:1" fill="#d6d9e1" d="M 329.5,497.5 C 331.026,498.105 332.026,499.271 332.5,501C 338.718,501.43 339.051,502.93 333.5,505.5C 334.428,506.768 334.595,508.101 334,509.5C 331.88,506.92 329.713,506.92 327.5,509.5C 327.12,507.979 326.954,506.313 327,504.5C 326.075,503.953 325.242,503.287 324.5,502.5C 326.045,501.548 327.712,501.215 329.5,501.5C 329.5,500.167 329.5,498.833 329.5,497.5 Z"/></g>
<g><path style="opacity:0.999" fill="#fefefe" d="M 718.5,502.5 C 718.5,507.833 718.5,513.167 718.5,518.5C 645.5,518.5 572.5,518.5 499.5,518.5C 499.5,513.167 499.5,507.833 499.5,502.5C 572.5,502.5 645.5,502.5 718.5,502.5 Z"/></g>
<g><path style="opacity:1" fill="#e4e6eb" d="M 403.5,509.5 C 405.597,511.686 408.264,513.019 411.5,513.5C 410.167,514.5 408.833,515.5 407.5,516.5C 408.428,517.768 408.595,519.101 408,520.5C 406,517.833 404,517.833 402,520.5C 402.107,517.443 400.94,515.109 398.5,513.5C 400.045,512.548 401.712,512.215 403.5,512.5C 403.5,511.5 403.5,510.5 403.5,509.5 Z"/></g>
<g><path style="opacity:1" fill="#d8dae2" d="M 433.5,508.5 C 435.176,509.183 435.843,510.517 435.5,512.5C 437.527,512.338 439.527,512.505 441.5,513C 440.132,514.34 438.799,515.674 437.5,517C 438.674,520.973 437.674,521.473 434.5,518.5C 431.182,521.359 430.182,520.692 431.5,516.5C 430.737,515.281 429.737,514.281 428.5,513.5C 431.785,513.302 433.452,511.635 433.5,508.5 Z"/></g>
<g><path style="opacity:1" fill="#d8dbe2" d="M 374.5,508.5 C 376.104,509.287 376.771,510.62 376.5,512.5C 378.288,512.215 379.955,512.548 381.5,513.5C 379.988,514.249 378.988,515.416 378.5,517C 379.33,518.465 379.496,519.965 379,521.5C 377.053,518.014 374.72,517.681 372,520.5C 371.647,519.328 371.813,518.162 372.5,517C 371.387,515.606 370.053,514.439 368.5,513.5C 370.167,512.833 371.833,512.167 373.5,511.5C 374.127,510.583 374.461,509.583 374.5,508.5 Z"/></g>
<g><path style="opacity:1" fill="#dadde4" d="M 463.5,508.5 C 465.104,509.287 465.771,510.62 465.5,512.5C 467.288,512.215 468.955,512.548 470.5,513.5C 469.758,514.287 468.925,514.953 468,515.5C 467.695,517.557 467.695,519.557 468,521.5C 466.165,518.142 463.998,517.809 461.5,520.5C 460.548,519.467 460.548,518.3 461.5,517C 460.491,515.832 459.491,514.665 458.5,513.5C 461.379,512.92 463.046,511.253 463.5,508.5 Z"/></g>
<g><path style="opacity:1" fill="#dfe2e7" d="M 344.5,509.5 C 346.048,509.821 346.715,510.821 346.5,512.5C 348.527,512.338 350.527,512.505 352.5,513C 351.132,514.34 349.799,515.674 348.5,517C 349.674,520.973 348.674,521.473 345.5,518.5C 342.182,521.359 341.182,520.692 342.5,516.5C 341.737,515.281 340.737,514.281 339.5,513.5C 341.045,512.548 342.712,512.215 344.5,512.5C 344.5,511.5 344.5,510.5 344.5,509.5 Z"/></g>
<g><path style="opacity:1" fill="#f5dadc" d="M 498.5,501.5 C 571.5,501.5 644.5,501.5 717.5,501.5C 717.833,501.5 718.167,501.5 718.5,501.5C 718.5,501.833 718.5,502.167 718.5,502.5C 645.5,502.5 572.5,502.5 499.5,502.5C 499.5,507.833 499.5,513.167 499.5,518.5C 572.5,518.5 645.5,518.5 718.5,518.5C 718.5,518.833 718.5,519.167 718.5,519.5C 718.167,519.5 717.833,519.5 717.5,519.5C 644.5,519.5 571.5,519.5 498.5,519.5C 498.5,513.5 498.5,507.5 498.5,501.5 Z"/></g>
<g><path style="opacity:1" fill="#d44e51" d="M 498.5,519.5 C 571.5,519.5 644.5,519.5 717.5,519.5C 717.5,519.833 717.5,520.167 717.5,520.5C 644.833,520.5 572.167,520.5 499.5,520.5C 499.5,525.5 499.5,530.5 499.5,535.5C 499.5,536.167 499.5,536.833 499.5,537.5C 499.167,537.5 498.833,537.5 498.5,537.5C 498.5,531.5 498.5,525.5 498.5,519.5 Z"/></g>
<g><path style="opacity:1" fill="#e0e3e9" d="M 330.5,518.5 C 331.073,521.759 333.073,523.592 336.5,524C 335.272,524.779 334.272,525.779 333.5,527C 334.99,531.088 333.99,531.588 330.5,528.5C 329.5,529.167 328.5,529.833 327.5,530.5C 327.12,528.979 326.954,527.313 327,525.5C 326.075,524.953 325.242,524.287 324.5,523.5C 326.045,522.548 327.712,522.215 329.5,522.5C 329.433,521.041 329.766,519.708 330.5,518.5 Z"/></g>
<g><path style="opacity:1" fill="#d4d6df" d="M 389.5,518.5 C 391.104,519.287 391.771,520.62 391.5,522.5C 393.288,522.215 394.955,522.548 396.5,523.5C 395.758,524.287 394.925,524.953 394,525.5C 393.695,527.557 393.695,529.557 394,531.5C 392.165,528.142 389.998,527.809 387.5,530.5C 387.128,527.534 385.795,525.2 383.5,523.5C 385.167,522.833 386.833,522.167 388.5,521.5C 389.127,520.583 389.461,519.583 389.5,518.5 Z"/></g>
<g><path style="opacity:1" fill="#d8dbe2" d="M 419.5,518.5 C 420.249,519.531 420.915,520.698 421.5,522C 427.718,522.43 428.051,523.93 422.5,526.5C 424.203,531.035 423.203,531.701 419.5,528.5C 418.186,529.313 417.019,530.313 416,531.5C 415.504,529.965 415.67,528.465 416.5,527C 416.012,525.416 415.012,524.249 413.5,523.5C 415.045,522.548 416.712,522.215 418.5,522.5C 418.433,521.041 418.766,519.708 419.5,518.5 Z"/></g>
<g><path style="opacity:1" fill="#dcdfe5" d="M 478.5,519.5 C 480.367,521.461 482.701,522.794 485.5,523.5C 483.988,524.249 482.988,525.416 482.5,527C 483.33,528.465 483.496,529.965 483,531.5C 481.165,528.142 478.998,527.809 476.5,530.5C 475.928,528.083 474.928,525.916 473.5,524C 474.793,523.51 476.127,523.343 477.5,523.5C 477.433,522.041 477.766,520.708 478.5,519.5 Z"/></g>
<g><path style="opacity:1" fill="#dbdee5" d="M 359.5,518.5 C 361.176,519.183 361.843,520.517 361.5,522.5C 363.527,522.338 365.527,522.505 367.5,523C 366.421,523.956 365.255,524.789 364,525.5C 364.046,527.313 363.88,528.979 363.5,530.5C 362.5,529.833 361.5,529.167 360.5,528.5C 357.326,531.473 356.326,530.973 357.5,527C 357.012,525.416 356.012,524.249 354.5,523.5C 356.045,522.548 357.712,522.215 359.5,522.5C 359.5,521.167 359.5,519.833 359.5,518.5 Z"/></g>
<g><path style="opacity:1" fill="#cb2026" d="M 717.5,520.5 C 717.5,525.833 717.5,531.167 717.5,536.5C 644.762,536.83 572.096,536.497 499.5,535.5C 499.5,530.5 499.5,525.5 499.5,520.5C 572.167,520.5 644.833,520.5 717.5,520.5 Z"/></g>
<g><path style="opacity:1" fill="#dcdfe6" d="M 453.5,525.5 C 452.928,527.119 452.595,528.785 452.5,530.5C 451.5,529.833 450.5,529.167 449.5,528.5C 446.326,531.473 445.326,530.973 446.5,527C 446.164,525.97 445.497,525.47 444.5,525.5C 444.196,524.85 443.863,524.183 443.5,523.5C 445.045,522.548 446.712,522.215 448.5,522.5C 449.167,517.167 449.833,517.167 450.5,522.5C 452.527,522.338 454.527,522.505 456.5,523C 455.429,523.852 454.429,524.685 453.5,525.5 Z"/></g>
<g><path style="opacity:1" fill="#eaecef" d="M 436.5,533.5 C 437.609,534.29 438.942,534.79 440.5,535C 437.793,536.199 437.126,538.033 438.5,540.5C 438.167,540.833 437.833,541.167 437.5,541.5C 436.5,540.833 435.5,540.167 434.5,539.5C 433.378,540.63 432.044,541.297 430.5,541.5C 432.258,538.626 431.592,536.459 428.5,535C 430.134,534.506 431.801,534.34 433.5,534.5C 433.67,529.725 434.67,529.392 436.5,533.5 Z"/></g>
<g><path style="opacity:1" fill="#303a64" d="M 444.5,525.5 C 445.497,525.47 446.164,525.97 446.5,527C 445.326,530.973 446.326,531.473 449.5,528.5C 450.5,529.167 451.5,529.833 452.5,530.5C 452.595,528.785 452.928,527.119 453.5,525.5C 453.369,526.239 453.536,526.906 454,527.5C 454.893,526.289 455.726,526.289 456.5,527.5C 455.076,529.291 453.742,531.125 452.5,533C 455.686,533.013 459.02,533.18 462.5,533.5C 461.391,534.29 460.058,534.79 458.5,535C 461.207,536.199 461.874,538.033 460.5,540.5C 460.833,540.833 461.167,541.167 461.5,541.5C 463.987,538.739 465.987,539.073 467.5,542.5C 462.601,543.53 462.434,544.864 467,546.5C 467.402,547.872 467.902,549.205 468.5,550.5C 468.062,551.506 467.396,551.506 466.5,550.5C 465.702,550.957 465.369,551.624 465.5,552.5C 463.892,551.462 462.892,552.129 462.5,554.5C 461.051,555.172 459.718,555.839 458.5,556.5C 457.842,555.602 457.176,554.602 456.5,553.5C 454.775,555.092 453.775,554.758 453.5,552.5C 453.481,550.94 453.148,549.44 452.5,548C 453.272,546.779 454.272,545.779 455.5,545C 452.203,545.184 450.203,543.684 449.5,540.5C 448.571,541.689 448.238,543.022 448.5,544.5C 443.008,543.822 442.341,544.989 446.5,548C 445.67,549.465 445.504,550.965 446,552.5C 446.383,551.944 446.883,551.611 447.5,551.5C 447.938,551.435 448.272,551.601 448.5,552C 444.998,555.949 441.165,556.116 437,552.5C 436.536,553.094 436.369,553.761 436.5,554.5C 435.842,553.602 435.176,552.602 434.5,551.5C 433.797,554.684 431.797,556.184 428.5,556C 430.694,557.553 431.86,559.719 432,562.5C 433.65,559.894 435.15,559.894 436.5,562.5C 434.621,563.341 432.621,563.675 430.5,563.5C 430.66,561.801 430.494,560.134 430,558.5C 427.777,560.826 426.277,563.492 425.5,566.5C 422.797,565.798 420.797,564.131 419.5,561.5C 418.571,562.689 418.238,564.022 418.5,565.5C 417.022,565.238 415.689,565.571 414.5,566.5C 415.862,568.427 416.862,570.427 417.5,572.5C 416.426,573.885 415.093,575.051 413.5,576C 414.167,576.333 414.833,576.667 415.5,577C 414.072,577.579 412.738,577.412 411.5,576.5C 408.068,576.873 405.734,575.54 404.5,572.5C 404.771,570.688 405.438,569.022 406.5,567.5C 407.251,568.376 407.751,569.376 408,570.5C 409.608,567.649 410.274,564.649 410,561.5C 409.399,563.359 408.566,563.692 407.5,562.5C 408.074,560.212 409.074,558.045 410.5,556C 407.577,555.793 405.744,554.293 405,551.5C 404.144,554.188 402.31,555.854 399.5,556.5C 400.862,558.427 401.862,560.427 402.5,562.5C 401.122,563.234 399.622,563.901 398,564.5C 397.798,566.256 397.298,567.922 396.5,569.5C 396.213,568.8 395.88,568.133 395.5,567.5C 395.611,566.883 395.944,566.383 396.5,566C 394.866,565.506 393.199,565.34 391.5,565.5C 390.985,560.914 389.985,560.581 388.5,564.5C 388.5,563.167 388.5,561.833 388.5,560.5C 389.552,560.649 390.552,560.483 391.5,560C 390.167,559 388.833,558 387.5,557C 389.5,556.333 391.5,555.667 393.5,555C 394.598,554.23 394.598,553.397 393.5,552.5C 394.372,551.388 394.372,550.054 393.5,548.5C 393.919,547.328 394.585,546.328 395.5,545.5C 394.051,544.828 392.718,544.161 391.5,543.5C 392.873,543.657 394.207,543.49 395.5,543C 392.879,542.094 393.046,541.594 396,541.5C 398.151,541.643 399.818,542.643 401,544.5C 400.524,542.68 400.691,541.013 401.5,539.5C 401.369,540.239 401.536,540.906 402,541.5C 402.739,540.426 403.739,539.759 405,539.5C 406.643,540.315 408.143,541.315 409.5,542.5C 409.811,543.478 410.478,544.145 411.5,544.5C 412.59,543.609 412.59,542.609 411.5,541.5C 412.968,539.667 414.635,539.334 416.5,540.5C 415.471,540.296 414.471,540.796 413.5,542C 414.056,542.383 414.389,542.883 414.5,543.5C 413.957,543.56 413.624,543.893 413.5,544.5C 415.012,545.249 416.012,546.416 416.5,548C 415.67,549.465 415.504,550.965 416,552.5C 418.034,549.141 420.368,548.808 423,551.5C 423.353,550.328 423.187,549.162 422.5,548C 423.272,546.779 424.272,545.779 425.5,545C 422.495,544.681 420.495,543.181 419.5,540.5C 419.56,539.957 419.893,539.624 420.5,539.5C 422.761,542.094 424.928,542.094 427,539.5C 427.483,540.448 427.649,541.448 427.5,542.5C 425.801,542.34 424.134,542.506 422.5,543C 425.521,543.867 428.188,543.367 430.5,541.5C 432.044,541.297 433.378,540.63 434.5,539.5C 435.5,540.167 436.5,540.833 437.5,541.5C 437.833,541.167 438.167,540.833 438.5,540.5C 437.126,538.033 437.793,536.199 440.5,535C 438.942,534.79 437.609,534.29 436.5,533.5C 438.766,533.141 440.599,533.808 442,535.5C 445.18,533.037 446.013,529.703 444.5,525.5 Z"/></g>
<g><path style="opacity:1" fill="#ebedf1" d="M 467.5,542.5 C 465.987,539.073 463.987,538.739 461.5,541.5C 461.167,541.167 460.833,540.833 460.5,540.5C 461.874,538.033 461.207,536.199 458.5,535C 460.058,534.79 461.391,534.29 462.5,533.5C 463.985,529.581 464.985,529.914 465.5,534.5C 466.873,534.343 468.207,534.51 469.5,535C 468.426,535.739 467.759,536.739 467.5,538C 468.608,539.677 468.608,541.177 467.5,542.5 Z"/></g>
<g><path style="opacity:1" fill="#e9ebef" d="M 373.5,540.5 C 372.833,539.167 372.167,537.833 371.5,536.5C 370.711,536.217 370.044,535.717 369.5,535C 370.793,534.51 372.127,534.343 373.5,534.5C 374.572,527.908 375.572,527.908 376.5,534.5C 377.873,534.343 379.207,534.51 380.5,535C 378.327,536.865 377.993,539.031 379.5,541.5C 379.333,541.833 379.167,542.167 379,542.5C 377.662,539.918 375.829,539.251 373.5,540.5 Z"/></g>
<g><path style="opacity:1" fill="#eaecef" d="M 344.5,530.5 C 346.026,531.105 347.026,532.271 347.5,534C 348.833,534.333 350.167,534.667 351.5,535C 350.272,535.779 349.272,536.779 348.5,538C 349.674,541.973 348.674,542.473 345.5,539.5C 342.326,542.473 341.326,541.973 342.5,538C 341.728,536.779 340.728,535.779 339.5,535C 342.901,535.266 344.567,533.766 344.5,530.5 Z"/></g>
<g><path style="opacity:1" fill="#c80e13" d="M 499.5,535.5 C 572.096,536.497 644.762,536.83 717.5,536.5C 645.002,537.499 572.335,537.833 499.5,537.5C 499.5,536.833 499.5,536.167 499.5,535.5 Z"/></g>
<g><path style="opacity:1" fill="#e7e9ee" d="M 409.5,542.5 C 408.143,541.315 406.643,540.315 405,539.5C 403.739,539.759 402.739,540.426 402,541.5C 401.536,540.906 401.369,540.239 401.5,539.5C 401.52,537.857 400.853,536.524 399.5,535.5C 400.689,534.571 402.022,534.238 403.5,534.5C 403.608,529.863 404.608,529.53 406.5,533.5C 407.729,534.281 409.062,534.781 410.5,535C 408.163,537.194 407.83,539.694 409.5,542.5 Z"/></g>
<g><path style="opacity:1" fill="#ebb0b6" d="M 717.5,519.5 C 717.833,519.5 718.167,519.5 718.5,519.5C 718.515,525.749 718.515,532.082 718.5,538.5C 645.167,538.5 571.833,538.5 498.5,538.5C 498.5,538.167 498.5,537.833 498.5,537.5C 498.833,537.5 499.167,537.5 499.5,537.5C 572.335,537.833 645.002,537.499 717.5,536.5C 717.5,531.167 717.5,525.833 717.5,520.5C 717.5,520.167 717.5,519.833 717.5,519.5 Z"/></g>
<g><path style="opacity:0.999" fill="#fefdfd" d="M 498.5,538.5 C 571.833,538.5 645.167,538.5 718.5,538.5C 719.518,546.079 719.518,553.412 718.5,560.5C 718.768,558.901 718.434,557.568 717.5,556.5C 644.669,555.501 571.669,555.167 498.5,555.5C 498.5,549.833 498.5,544.167 498.5,538.5 Z"/></g>
<g><path style="opacity:1" fill="#989eb2" d="M 371.5,536.5 C 372.167,537.833 372.833,539.167 373.5,540.5C 372.86,542.332 371.86,542.665 370.5,541.5C 371.309,539.929 371.643,538.262 371.5,536.5 Z"/></g>
<g><path style="opacity:1" fill="#e3e5eb" d="M 329.5,540.5 C 331.151,542.848 333.485,544.348 336.5,545C 335.272,545.779 334.272,546.779 333.5,548C 334.745,551.751 333.912,552.251 331,549.5C 329.395,550.101 328.062,551.101 327,552.5C 326.504,550.965 326.67,549.465 327.5,548C 323.132,544.669 323.799,543.169 329.5,543.5C 329.5,542.5 329.5,541.5 329.5,540.5 Z"/></g>
<g><path style="opacity:1" fill="#e1e3e9" d="M 391.5,543.5 C 392.718,544.161 394.051,544.828 395.5,545.5C 394.585,546.328 393.919,547.328 393.5,548.5C 394.372,550.054 394.372,551.388 393.5,552.5C 391.376,548.683 389.042,548.683 386.5,552.5C 386.167,552.167 385.833,551.833 385.5,551.5C 387.007,549.031 386.673,546.865 384.5,545C 385.793,544.51 387.127,544.343 388.5,544.5C 388.921,540.016 389.921,539.683 391.5,543.5 Z"/></g>
<g><path style="opacity:1" fill="#e8eaef" d="M 453.5,552.5 C 452.185,551.524 450.852,550.524 449.5,549.5C 448.478,549.855 447.811,550.522 447.5,551.5C 446.883,551.611 446.383,551.944 446,552.5C 445.504,550.965 445.67,549.465 446.5,548C 442.341,544.989 443.008,543.822 448.5,544.5C 448.238,543.022 448.571,541.689 449.5,540.5C 450.203,543.684 452.203,545.184 455.5,545C 454.272,545.779 453.272,546.779 452.5,548C 453.148,549.44 453.481,550.94 453.5,552.5 Z"/></g>
<g><path style="opacity:1" fill="#edeef2" d="M 477.5,550.5 C 476.833,549.5 476.167,548.5 475.5,547.5C 472.693,544.956 473.36,543.956 477.5,544.5C 478.5,539.167 479.5,539.167 480.5,544.5C 481.873,544.343 483.207,544.51 484.5,545C 482.327,546.865 481.993,549.031 483.5,551.5C 483.333,551.833 483.167,552.167 483,552.5C 481.662,549.918 479.829,549.251 477.5,550.5 Z"/></g>
<g><path style="opacity:1" fill="#ebecf0" d="M 419.5,540.5 C 420.495,543.181 422.495,544.681 425.5,545C 424.272,545.779 423.272,546.779 422.5,548C 423.187,549.162 423.353,550.328 423,551.5C 420.368,548.808 418.034,549.141 416,552.5C 415.504,550.965 415.67,549.465 416.5,548C 416.012,546.416 415.012,545.249 413.5,544.5C 413.624,543.893 413.957,543.56 414.5,543.5C 415.833,543.5 417.167,543.5 418.5,543.5C 418.263,542.209 418.596,541.209 419.5,540.5 Z"/></g>
<g><path style="opacity:1" fill="#e9eaef" d="M 359.5,540.5 C 361.026,541.105 362.026,542.271 362.5,544C 363.833,544.333 365.167,544.667 366.5,545C 365.272,545.779 364.272,546.779 363.5,548C 364.674,551.973 363.674,552.473 360.5,549.5C 359.186,550.313 358.019,551.313 357,552.5C 356.504,550.965 356.67,549.465 357.5,548C 356.728,546.779 355.728,545.779 354.5,545C 357.491,544.855 359.158,543.355 359.5,540.5 Z"/></g>
<g><path style="opacity:1" fill="#9ea4b9" d="M 475.5,547.5 C 476.167,548.5 476.833,549.5 477.5,550.5C 476.86,552.332 475.86,552.665 474.5,551.5C 475.246,550.264 475.579,548.93 475.5,547.5 Z"/></g>
<g><path style="opacity:1" fill="#e5e7ec" d="M 407.5,562.5 C 405.833,561.167 404.167,561.167 402.5,562.5C 401.862,560.427 400.862,558.427 399.5,556.5C 402.31,555.854 404.144,554.188 405,551.5C 405.744,554.293 407.577,555.793 410.5,556C 409.074,558.045 408.074,560.212 407.5,562.5 Z"/></g>
<g><path style="opacity:1" fill="#e8eaee" d="M 436.5,554.5 C 437.609,555.29 438.942,555.79 440.5,556C 439.313,557.019 438.313,558.186 437.5,559.5C 439.104,562.125 438.77,563.125 436.5,562.5C 435.15,559.894 433.65,559.894 432,562.5C 431.86,559.719 430.694,557.553 428.5,556C 431.797,556.184 433.797,554.684 434.5,551.5C 435.176,552.602 435.842,553.602 436.5,554.5 Z"/></g>
<g><path style="opacity:1" fill="#e1e3e9" d="M 465.5,552.5 C 465.5,553.5 465.5,554.5 465.5,555.5C 467.199,555.34 468.866,555.506 470.5,556C 469.01,556.745 468.01,557.912 467.5,559.5C 468.043,560.864 468.21,562.197 468,563.5C 465.577,561.006 463.244,561.006 461,563.5C 460.667,561.5 460.333,559.5 460,557.5C 459.617,556.944 459.117,556.611 458.5,556.5C 459.718,555.839 461.051,555.172 462.5,554.5C 462.892,552.129 463.892,551.462 465.5,552.5 Z"/></g>
<g><path style="opacity:1" fill="#e6e7ed" d="M 344.5,551.5 C 346.026,552.105 347.026,553.271 347.5,555C 348.833,555.333 350.167,555.667 351.5,556C 350.313,557.019 349.313,558.186 348.5,559.5C 349.428,560.768 349.595,562.101 349,563.5C 347.165,560.142 344.998,559.809 342.5,562.5C 341.269,561.349 341.269,560.183 342.5,559C 341.5,558 340.5,557 339.5,556C 342.901,556.266 344.567,554.766 344.5,551.5 Z"/></g>
<g><path style="opacity:1" fill="#e7e8ed" d="M 373.5,561.5 C 372.833,560.5 372.167,559.5 371.5,558.5C 371.047,557.542 370.381,556.708 369.5,556C 372.81,556.229 374.644,554.729 375,551.5C 376.188,552.563 376.688,553.897 376.5,555.5C 378.199,555.34 379.866,555.506 381.5,556C 378.647,557.53 377.98,559.697 379.5,562.5C 379.333,562.833 379.167,563.167 379,563.5C 377.416,562.139 375.582,561.472 373.5,561.5 Z"/></g>
<g><path style="opacity:1" fill="#cb2026" d="M 717.5,556.5 C 717.5,562.167 717.5,567.833 717.5,573.5C 644.833,573.5 572.167,573.5 499.5,573.5C 499.5,567.833 499.5,562.167 499.5,556.5C 572.167,556.5 644.833,556.5 717.5,556.5 Z"/></g>
<g><path style="opacity:1" fill="#cd686b" d="M 498.5,555.5 C 571.669,555.167 644.669,555.501 717.5,556.5C 644.833,556.5 572.167,556.5 499.5,556.5C 499.5,562.167 499.5,567.833 499.5,573.5C 572.167,573.5 644.833,573.5 717.5,573.5C 644.669,574.499 571.669,574.833 498.5,574.5C 498.5,568.167 498.5,561.833 498.5,555.5 Z"/></g>
<g><path style="opacity:1" fill="#9da3b6" d="M 371.5,558.5 C 372.167,559.5 372.833,560.5 373.5,561.5C 372.86,563.332 371.86,563.665 370.5,562.5C 371.246,561.264 371.579,559.93 371.5,558.5 Z"/></g>
<g><path style="opacity:1" fill="#e6e8ed" d="M 329.5,561.5 C 331.151,563.848 333.485,565.348 336.5,566C 335.072,567.916 334.072,570.083 333.5,572.5C 331.608,569.956 329.775,569.956 328,572.5C 327.788,570.22 326.955,568.22 325.5,566.5C 326.689,565.571 328.022,565.238 329.5,565.5C 329.5,564.167 329.5,562.833 329.5,561.5 Z"/></g>
<g><path style="opacity:1" fill="#e5e7ec" d="M 359.5,561.5 C 361.176,562.183 361.843,563.517 361.5,565.5C 366.992,564.822 367.659,565.989 363.5,569C 364.33,570.465 364.496,571.965 364,573.5C 361.667,569.5 359.333,569.5 357,573.5C 358.228,570.291 357.395,567.791 354.5,566C 357.901,566.266 359.567,564.766 359.5,561.5 Z"/></g>
<g><path style="opacity:1" fill="#e8e9ee" d="M 448.5,561.5 C 450.026,562.105 451.026,563.271 451.5,565C 452.833,565.333 454.167,565.667 455.5,566C 454.272,566.779 453.272,567.779 452.5,569C 453.33,570.465 453.496,571.965 453,573.5C 450.667,569.5 448.333,569.5 446,573.5C 445.504,571.965 445.67,570.465 446.5,569C 445.728,567.779 444.728,566.779 443.5,566C 446.901,566.266 448.567,564.766 448.5,561.5 Z"/></g>
<g><path style="opacity:1" fill="#e6e8ed" d="M 478.5,561.5 C 480.104,562.287 480.771,563.62 480.5,565.5C 482.199,565.34 483.866,565.506 485.5,566C 484.01,566.745 483.01,567.912 482.5,569.5C 483.043,570.864 483.21,572.197 483,573.5C 481.165,570.142 478.998,569.809 476.5,572.5C 475.41,571.609 475.41,570.609 476.5,569.5C 475.687,568.186 474.687,567.019 473.5,566C 474.793,565.51 476.127,565.343 477.5,565.5C 477.433,564.041 477.766,562.708 478.5,561.5 Z"/></g>
<g><path style="opacity:1" fill="#e5e7eb" d="M 425.5,566.5 C 424.194,568.245 423.194,570.245 422.5,572.5C 420.631,570.016 418.964,570.016 417.5,572.5C 416.862,570.427 415.862,568.427 414.5,566.5C 415.689,565.571 417.022,565.238 418.5,565.5C 418.238,564.022 418.571,562.689 419.5,561.5C 420.797,564.131 422.797,565.798 425.5,566.5 Z"/></g>
<g><path style="opacity:0.32" fill="#e4a0a5" d="M 717.5,556.5 C 718.434,557.568 718.768,558.901 718.5,560.5C 718.745,565.056 718.745,569.39 718.5,573.5C 718.167,573.5 717.833,573.5 717.5,573.5C 717.5,567.833 717.5,562.167 717.5,556.5 Z"/></g>
<g><path style="opacity:1" fill="#e7eaee" d="M 395.5,567.5 C 394.414,567.62 393.747,568.287 393.5,569.5C 394.043,570.864 394.21,572.197 394,573.5C 391.922,570.646 389.755,570.312 387.5,572.5C 386.928,570.083 385.928,567.916 384.5,566C 386.058,565.79 387.391,565.29 388.5,564.5C 389.985,560.581 390.985,560.914 391.5,565.5C 393.199,565.34 394.866,565.506 396.5,566C 395.944,566.383 395.611,566.883 395.5,567.5 Z"/></g>
<g><path style="opacity:1" fill="#e2e4e9" d="M 404.5,572.5 C 405.734,575.54 408.068,576.873 411.5,576.5C 409.539,578.367 408.206,580.701 407.5,583.5C 405.833,582.167 404.167,582.167 402.5,583.5C 401.902,580.813 400.569,578.646 398.5,577C 400.134,576.506 401.801,576.34 403.5,576.5C 403.433,575.041 403.766,573.708 404.5,572.5 Z"/></g>
<g><path style="opacity:1" fill="#e4e6eb" d="M 374.5,572.5 C 376.104,573.287 376.771,574.62 376.5,576.5C 378.199,576.34 379.866,576.506 381.5,577C 378.647,578.53 377.98,580.697 379.5,583.5C 379.167,583.833 378.833,584.167 378.5,584.5C 377.672,583.585 376.672,582.919 375.5,582.5C 372.347,584.329 371.347,583.662 372.5,580.5C 371.737,579.281 370.737,578.281 369.5,577.5C 372.379,576.92 374.046,575.253 374.5,572.5 Z"/></g>
<g><path style="opacity:1" fill="#e9ebee" d="M 433.5,572.5 C 435.026,573.105 436.026,574.271 436.5,576C 437.938,576.219 439.271,576.719 440.5,577.5C 439.263,578.281 438.263,579.281 437.5,580.5C 438.428,581.768 438.595,583.101 438,584.5C 436.276,581.27 434.276,580.936 432,583.5C 431.934,580.724 430.768,578.558 428.5,577C 430.134,576.506 431.801,576.34 433.5,576.5C 433.5,575.167 433.5,573.833 433.5,572.5 Z"/></g>
<g><path style="opacity:1" fill="#e6e9ed" d="M 463.5,572.5 C 465.104,573.287 465.771,574.62 465.5,576.5C 467.199,576.34 468.866,576.506 470.5,577C 469.01,577.745 468.01,578.912 467.5,580.5C 468.043,581.864 468.21,583.197 468,584.5C 465.577,582.006 463.244,582.006 461,584.5C 460.405,583.101 460.572,581.768 461.5,580.5C 460.687,579.186 459.687,578.019 458.5,577C 461.901,577.266 463.567,575.766 463.5,572.5 Z"/></g>
<g><path style="opacity:0.999" fill="#fdfafa" d="M 717.5,573.5 C 717.833,573.5 718.167,573.5 718.5,573.5C 718.5,579.833 718.5,586.167 718.5,592.5C 718.167,592.5 717.833,592.5 717.5,592.5C 644.833,592.5 572.167,592.5 499.5,592.5C 499.167,592.5 498.833,592.5 498.5,592.5C 498.5,586.5 498.5,580.5 498.5,574.5C 571.669,574.833 644.669,574.499 717.5,573.5 Z"/></g>
<g><path style="opacity:1" fill="#e6e7ec" d="M 344.5,572.5 C 346.026,573.105 347.026,574.271 347.5,576C 348.938,576.219 350.271,576.719 351.5,577.5C 350.263,578.281 349.263,579.281 348.5,580.5C 349.428,581.768 349.595,583.101 349,584.5C 346.667,580.5 344.333,580.5 342,584.5C 341.405,583.101 341.572,581.768 342.5,580.5C 341.687,579.186 340.687,578.019 339.5,577C 341.134,576.506 342.801,576.34 344.5,576.5C 344.5,575.167 344.5,573.833 344.5,572.5 Z"/></g>
<g><path style="opacity:1" fill="#dfe2e8" d="M 329.5,582.5 C 331.026,583.105 332.026,584.271 332.5,586C 338.151,585.979 338.651,587.145 334,589.5C 334.263,590.951 334.096,592.284 333.5,593.5C 331.249,592.135 329.249,592.469 327.5,594.5C 328.226,591.537 327.226,589.037 324.5,587C 326.134,586.506 327.801,586.34 329.5,586.5C 329.5,585.167 329.5,583.833 329.5,582.5 Z"/></g>
<g><path style="opacity:1" fill="#e0e2e8" d="M 359.5,582.5 C 361.026,583.105 362.026,584.271 362.5,586C 366.927,586 367.427,587.167 364,589.5C 363.805,591.207 363.805,592.874 364,594.5C 361.727,592.108 359.56,592.108 357.5,594.5C 356.355,593.224 356.355,591.891 357.5,590.5C 356.687,589.186 355.687,588.019 354.5,587C 357.491,586.855 359.158,585.355 359.5,582.5 Z"/></g>
<g><path style="opacity:1" fill="#e6e8ec" d="M 389.5,582.5 C 391.104,583.287 391.771,584.62 391.5,586.5C 393.199,586.34 394.866,586.506 396.5,587C 394.431,588.646 393.098,590.813 392.5,593.5C 390.356,592.047 388.523,592.38 387,594.5C 386.97,591.385 385.803,588.885 383.5,587C 385.134,586.506 386.801,586.34 388.5,586.5C 388.433,585.041 388.766,583.708 389.5,582.5 Z"/></g>
<g><path style="opacity:1" fill="#dee1e6" d="M 418.5,582.5 C 420.121,582.787 421.121,583.787 421.5,585.5C 427.054,585.933 427.554,587.266 423,589.5C 423.263,590.951 423.096,592.284 422.5,593.5C 420.249,592.135 418.249,592.469 416.5,594.5C 417.226,591.537 416.226,589.037 413.5,587C 415.134,586.506 416.801,586.34 418.5,586.5C 418.5,585.167 418.5,583.833 418.5,582.5 Z"/></g>
<g><path style="opacity:1" fill="#e3e5ea" d="M 448.5,582.5 C 450.026,583.105 451.026,584.271 451.5,586C 452.833,586.333 454.167,586.667 455.5,587C 454.313,588.019 453.313,589.186 452.5,590.5C 453.428,591.768 453.595,593.101 453,594.5C 450.577,592.006 448.244,592.006 446,594.5C 445.405,593.101 445.572,591.768 446.5,590.5C 445.687,589.186 444.687,588.019 443.5,587C 446.491,586.855 448.158,585.355 448.5,582.5 Z"/></g>
<g><path style="opacity:1" fill="#e4e6eb" d="M 478.5,582.5 C 480.104,583.287 480.771,584.62 480.5,586.5C 482.199,586.34 483.866,586.506 485.5,587C 482.774,589.037 481.774,591.537 482.5,594.5C 480.287,591.92 478.12,591.92 476,594.5C 475.405,593.101 475.572,591.768 476.5,590.5C 475.687,589.186 474.687,588.019 473.5,587C 476.491,586.855 478.158,585.355 478.5,582.5 Z"/></g>
<g><path style="opacity:1" fill="#cb2127" d="M 498.5,592.5 C 498.833,592.5 499.167,592.5 499.5,592.5C 571.665,593.499 643.998,593.833 716.5,593.5C 716.5,598.5 716.5,603.5 716.5,608.5C 643.998,608.167 571.665,608.501 499.5,609.5C 499.167,609.5 498.833,609.5 498.5,609.5C 498.5,603.833 498.5,598.167 498.5,592.5 Z"/></g>
<g><path style="opacity:1" fill="#c81116" d="M 499.5,592.5 C 572.167,592.5 644.833,592.5 717.5,592.5C 717.5,598.167 717.5,603.833 717.5,609.5C 644.833,609.5 572.167,609.5 499.5,609.5C 571.665,608.501 643.998,608.167 716.5,608.5C 716.5,603.5 716.5,598.5 716.5,593.5C 643.998,593.833 571.665,593.499 499.5,592.5 Z"/></g>
<g><path style="opacity:1" fill="#7f879e" d="M 313.5,483.5 C 313.833,483.5 314.167,483.5 314.5,483.5C 314.5,525.5 314.5,567.5 314.5,609.5C 375.833,609.5 437.167,609.5 498.5,609.5C 498.5,609.833 498.5,610.167 498.5,610.5C 436.833,610.5 375.167,610.5 313.5,610.5C 313.5,568.167 313.5,525.833 313.5,483.5 Z"/></g>
<g><path style="opacity:1" fill="#de787b" d="M 717.5,592.5 C 717.833,592.5 718.167,592.5 718.5,592.5C 719.51,596.858 719.51,601.524 718.5,606.5C 718.5,607.833 718.5,609.167 718.5,610.5C 646.167,610.5 573.833,610.5 501.5,610.5C 500.5,610.5 499.5,610.5 498.5,610.5C 498.5,610.167 498.5,609.833 498.5,609.5C 498.833,609.5 499.167,609.5 499.5,609.5C 572.167,609.5 644.833,609.5 717.5,609.5C 717.5,603.833 717.5,598.167 717.5,592.5 Z"/></g>
<g><path style="opacity:1" fill="#f7f9fa" d="M 307.5,476.5 C 308.167,476.833 308.833,477.167 309.5,477.5C 310.833,479.5 312.167,481.5 313.5,483.5C 313.5,525.833 313.5,568.167 313.5,610.5C 375.167,610.5 436.833,610.5 498.5,610.5C 499.5,610.5 500.5,610.5 501.5,610.5C 439.336,611.499 377.002,611.832 314.5,611.5C 313.27,616.878 313.27,622.211 314.5,627.5C 314.5,627.833 314.5,628.167 314.5,628.5C 314.5,629.167 314.5,629.833 314.5,630.5C 314.5,635.833 314.5,641.167 314.5,646.5C 313.167,652.5 313.167,658.5 314.5,664.5C 314.5,669.833 314.5,675.167 314.5,680.5C 314.5,681.167 314.5,681.833 314.5,682.5C 314.5,682.833 314.5,683.167 314.5,683.5C 314.218,688.042 313.218,692.375 311.5,696.5C 312.397,696.669 313.397,697.002 314.5,697.5C 312.565,698.213 312.232,699.213 313.5,700.5C 313.177,706.69 313.51,712.69 314.5,718.5C 314.5,718.833 314.5,719.167 314.5,719.5C 314.5,723.833 314.5,728.167 314.5,732.5C 312.043,792.162 309.71,851.829 307.5,911.5C 307.5,766.5 307.5,621.5 307.5,476.5 Z"/></g>
<g><path style="opacity:0.999" fill="#fefefe" d="M 718.5,606.5 C 719.415,613.323 719.415,620.323 718.5,627.5C 583.833,627.5 449.167,627.5 314.5,627.5C 313.27,622.211 313.27,616.878 314.5,611.5C 377.002,611.832 439.336,611.499 501.5,610.5C 573.833,610.5 646.167,610.5 718.5,610.5C 718.5,609.167 718.5,607.833 718.5,606.5 Z"/></g>
<g><path style="opacity:1" fill="#ecb8bb" d="M 314.5,628.5 C 314.5,628.167 314.5,627.833 314.5,627.5C 449.167,627.5 583.833,627.5 718.5,627.5C 719.355,632.07 719.355,637.07 718.5,642.5C 718.768,644.099 718.434,645.432 717.5,646.5C 717.5,646.167 717.5,645.833 717.5,645.5C 717.5,639.833 717.5,634.167 717.5,628.5C 583.167,628.5 448.833,628.5 314.5,628.5 Z"/></g>
<g><path style="opacity:1" fill="#cc2127" d="M 314.5,630.5 C 448.5,630.5 582.5,630.5 716.5,630.5C 716.5,635.167 716.5,639.833 716.5,644.5C 582.833,644.333 449.166,644.5 315.5,645C 449.5,645.5 583.5,645.667 717.5,645.5C 717.5,645.833 717.5,646.167 717.5,646.5C 583.167,646.5 448.833,646.5 314.5,646.5C 314.5,641.167 314.5,635.833 314.5,630.5 Z"/></g>
<g><path style="opacity:1" fill="#cb1f24" d="M 314.5,628.5 C 448.833,628.5 583.167,628.5 717.5,628.5C 717.5,634.167 717.5,639.833 717.5,645.5C 583.5,645.667 449.5,645.5 315.5,645C 449.166,644.5 582.833,644.333 716.5,644.5C 716.5,639.833 716.5,635.167 716.5,630.5C 582.5,630.5 448.5,630.5 314.5,630.5C 314.5,629.833 314.5,629.167 314.5,628.5 Z"/></g>
<g><path style="opacity:1" fill="#f7dfe0" d="M 718.5,642.5 C 719.833,644.167 719.833,645.833 718.5,647.5C 583.666,647.833 448.999,647.5 314.5,646.5C 448.833,646.5 583.167,646.5 717.5,646.5C 718.434,645.432 718.768,644.099 718.5,642.5 Z"/></g>
<g><path style="opacity:0.998" fill="#fefdfd" d="M 314.5,646.5 C 448.999,647.5 583.666,647.833 718.5,647.5C 718.5,653.167 718.5,658.833 718.5,664.5C 718.167,664.5 717.833,664.5 717.5,664.5C 583.167,664.5 448.833,664.5 314.5,664.5C 313.167,658.5 313.167,652.5 314.5,646.5 Z"/></g>
<g><path style="opacity:1" fill="#cc2429" d="M 314.5,664.5 C 448.833,664.5 583.167,664.5 717.5,664.5C 717.5,664.833 717.5,665.167 717.5,665.5C 583.498,665.167 449.498,665.5 315.5,666.5C 448.891,666.503 582.558,666.503 716.5,666.5C 716.5,671.167 716.5,675.833 716.5,680.5C 582.5,680.5 448.5,680.5 314.5,680.5C 314.5,675.167 314.5,669.833 314.5,664.5 Z"/></g>
<g><path style="opacity:1" fill="#cb2427" d="M 717.5,665.5 C 717.5,671.167 717.5,676.833 717.5,682.5C 583.167,682.5 448.833,682.5 314.5,682.5C 314.5,681.833 314.5,681.167 314.5,680.5C 448.5,680.5 582.5,680.5 716.5,680.5C 716.5,675.833 716.5,671.167 716.5,666.5C 582.558,666.503 448.891,666.503 315.5,666.5C 449.498,665.5 583.498,665.167 717.5,665.5 Z"/></g>
<g><path style="opacity:1" fill="#f0c6c7" d="M 717.5,664.5 C 717.833,664.5 718.167,664.5 718.5,664.5C 718.565,670.824 718.565,677.157 718.5,683.5C 583.833,683.5 449.167,683.5 314.5,683.5C 314.5,683.167 314.5,682.833 314.5,682.5C 448.833,682.5 583.167,682.5 717.5,682.5C 717.5,676.833 717.5,671.167 717.5,665.5C 717.5,665.167 717.5,664.833 717.5,664.5 Z"/></g>
<g><path style="opacity:0.999" fill="#fefefe" d="M 314.5,683.5 C 449.167,683.5 583.833,683.5 718.5,683.5C 718.731,689.334 718.731,695 718.5,700.5C 718.167,700.5 717.833,700.5 717.5,700.5C 582.833,700.5 448.167,700.5 313.5,700.5C 312.232,699.213 312.565,698.213 314.5,697.5C 313.397,697.002 312.397,696.669 311.5,696.5C 313.218,692.375 314.218,688.042 314.5,683.5 Z"/></g>
<g><path style="opacity:0.999" fill="#c5c6c8" d="M 297.5,476.5 C 298.492,476.328 299.158,476.662 299.5,477.5C 300.165,665.503 299.499,853.17 297.5,1040.5C 297.5,852.5 297.5,664.5 297.5,476.5 Z"/></g>
<g><path style="opacity:0.758" fill="#d3d4d6" d="M 303.5,471.5 C 301.833,471.5 300.167,471.5 298.5,471.5C 298.371,473.216 298.038,474.883 297.5,476.5C 297.5,664.5 297.5,852.5 297.5,1040.5C 298.444,1049.45 298.778,1058.45 298.5,1067.5C 296.693,1059.9 295.86,1051.9 296,1043.5C 295.5,1052.49 295.334,1061.49 295.5,1070.5C 295.167,1070.5 294.833,1070.5 294.5,1070.5C 294.5,1069.83 294.5,1069.17 294.5,1068.5C 294.029,1059 294.529,1049.67 296,1040.5C 296.378,856.828 296.545,673.162 296.5,489.5C 296.333,484.5 296.167,479.5 296,474.5C 294.989,475.337 293.822,475.67 292.5,475.5C 292.5,473.833 292.5,472.167 292.5,470.5C 294.124,470.36 295.29,471.027 296,472.5C 298.357,470.354 300.857,470.021 303.5,471.5 Z"/></g>
<g><path style="opacity:1" fill="#e17479" d="M 313.5,700.5 C 448.167,700.5 582.833,700.5 717.5,700.5C 717.5,700.833 717.5,701.167 717.5,701.5C 582.999,701.167 448.666,701.5 314.5,702.5C 314.5,707.833 314.5,713.167 314.5,718.5C 313.51,712.69 313.177,706.69 313.5,700.5 Z"/></g>
<g><path style="opacity:1" fill="#cb2127" d="M 314.5,702.5 C 448.5,702.5 582.5,702.5 716.5,702.5C 716.5,707.5 716.5,712.5 716.5,717.5C 582.999,717.167 449.666,717.5 316.5,718.5C 315.833,718.5 315.167,718.5 314.5,718.5C 314.5,713.167 314.5,707.833 314.5,702.5 Z"/></g>
<g><path style="opacity:1" fill="#c81518" d="M 314.5,702.5 C 448.666,701.5 582.999,701.167 717.5,701.5C 717.5,707.167 717.5,712.833 717.5,718.5C 583.833,718.5 450.167,718.5 316.5,718.5C 449.666,717.5 582.999,717.167 716.5,717.5C 716.5,712.5 716.5,707.5 716.5,702.5C 582.5,702.5 448.5,702.5 314.5,702.5 Z"/></g>
<g><path style="opacity:0.635" fill="#e5a0a3" d="M 717.5,700.5 C 717.833,700.5 718.167,700.5 718.5,700.5C 718.392,705.879 718.726,711.379 719.5,717C 718.809,718.067 718.309,719.234 718,720.5C 717.617,719.944 717.117,719.611 716.5,719.5C 583.167,719.5 449.833,719.5 316.5,719.5C 315.833,719.5 315.167,719.5 314.5,719.5C 314.5,719.167 314.5,718.833 314.5,718.5C 315.167,718.5 315.833,718.5 316.5,718.5C 450.167,718.5 583.833,718.5 717.5,718.5C 717.5,712.833 717.5,707.167 717.5,701.5C 717.5,701.167 717.5,700.833 717.5,700.5 Z"/></g>
<g><path style="opacity:0.068" fill="#f5fcfd" d="M 316.5,719.5 C 449.833,719.5 583.167,719.5 716.5,719.5C 583.999,720.167 451.333,720.833 318.5,721.5C 318.023,722.478 317.357,723.311 316.5,724C 316.327,739.007 316.327,753.841 316.5,768.5C 316.31,773.376 315.643,778.043 314.5,782.5C 314.643,766.495 314.976,750.495 315.5,734.5C 315.274,729.438 315.608,724.438 316.5,719.5 Z"/></g>
<g><path style="opacity:1" fill="#9d9ea2" d="M 314.5,719.5 C 315.167,719.5 315.833,719.5 316.5,719.5C 315.608,724.438 315.274,729.438 315.5,734.5C 314.662,734.158 314.328,733.492 314.5,732.5C 314.5,728.167 314.5,723.833 314.5,719.5 Z"/></g>
<g><path style="opacity:0.004" fill="#f5f7f8" d="M 317.5,731.5 C 318.525,731.897 318.692,732.563 318,733.5C 317.536,732.906 317.369,732.239 317.5,731.5 Z"/></g>
<g><path style="opacity:1" fill="#343436" d="M 302.5,477.5 C 303.165,665.836 302.499,853.836 300.5,1041.5C 300.5,853.5 300.5,665.5 300.5,477.5C 301.167,474.833 301.833,474.833 302.5,477.5 Z"/></g>
<g><path style="opacity:0.761" fill="#dbdcde" d="M 314.5,732.5 C 314.328,733.492 314.662,734.158 315.5,734.5C 314.976,750.495 314.643,766.495 314.5,782.5C 314.695,788.536 315.029,794.37 315.5,800C 314.507,804.797 313.84,809.63 313.5,814.5C 312.321,830.322 311.654,846.322 311.5,862.5C 311.78,871.447 311.78,880.447 311.5,889.5C 310.756,902.018 310.089,914.684 309.5,927.5C 308.833,934.167 308.167,940.833 307.5,947.5C 307.5,935.5 307.5,923.5 307.5,911.5C 309.71,851.829 312.043,792.162 314.5,732.5 Z"/></g>
<g><path style="opacity:0.004" fill="#f7f8fa" d="M 314.5,811.5 C 315.634,813.966 315.801,816.633 315,819.5C 314.503,816.854 314.336,814.187 314.5,811.5 Z"/></g>
<g><path style="opacity:0.032" fill="#f7f8fa" d="M 313.5,814.5 C 313.263,822.528 313.597,830.528 314.5,838.5C 313.768,846.147 313.268,853.813 313,861.5C 312.617,862.056 312.117,862.389 311.5,862.5C 311.654,846.322 312.321,830.322 313.5,814.5 Z"/></g>
<g><path style="opacity:1" fill="#ababad" d="M 299.5,477.5 C 299.833,477.5 300.167,477.5 300.5,477.5C 300.5,665.5 300.5,853.5 300.5,1041.5C 300.5,1042.17 300.5,1042.83 300.5,1043.5C 299.508,1051.32 299.174,1059.32 299.5,1067.5C 299.167,1067.5 298.833,1067.5 298.5,1067.5C 298.778,1058.45 298.444,1049.45 297.5,1040.5C 299.499,853.17 300.165,665.503 299.5,477.5 Z"/></g>
<g><path style="opacity:1" fill="#9fa0a3" d="M 307.5,476.5 C 307.5,621.5 307.5,766.5 307.5,911.5C 307.5,923.5 307.5,935.5 307.5,947.5C 307.5,979.167 307.5,1010.83 307.5,1042.5C 305.901,1042.23 304.568,1042.57 303.5,1043.5C 303.167,1043.5 302.833,1043.5 302.5,1043.5C 301.833,1043.5 301.167,1043.5 300.5,1043.5C 300.5,1042.83 300.5,1042.17 300.5,1041.5C 302.499,853.836 303.165,665.836 302.5,477.5C 302.833,477.5 303.167,477.5 303.5,477.5C 303.167,665.168 303.5,852.835 304.5,1040.5C 305.5,853.168 305.833,665.835 305.5,478.5C 306.167,477.833 306.833,477.167 307.5,476.5 Z"/></g>
<g><path style="opacity:0.004" fill="#fafbfd" d="M 311.5,889.5 C 312.622,891.288 312.789,893.288 312,895.5C 311.505,893.527 311.338,891.527 311.5,889.5 Z"/></g>
<g><path style="opacity:0.08" fill="#fafafb" d="M 309.5,927.5 C 308.342,965.623 308.342,1003.96 309.5,1042.5C 308.833,1042.5 308.167,1042.5 307.5,1042.5C 307.5,1010.83 307.5,979.167 307.5,947.5C 308.167,940.833 308.833,934.167 309.5,927.5 Z"/></g>
<g><path style="opacity:1" fill="#97989b" d="M 298.5,1067.5 C 298.833,1067.5 299.167,1067.5 299.5,1067.5C 299.5,1067.83 299.5,1068.17 299.5,1068.5C 299.917,1069.12 300.584,1069.46 301.5,1069.5C 302.713,1069.25 303.38,1068.59 303.5,1067.5C 304.833,1067.5 306.167,1067.5 307.5,1067.5C 307.169,1059.47 307.502,1051.47 308.5,1043.5C 309.498,1052.14 309.831,1060.81 309.5,1069.5C 308.167,1069.5 306.833,1069.5 305.5,1069.5C 305.5,1071.17 305.5,1072.83 305.5,1074.5C 301.5,1074.5 297.5,1074.5 293.5,1074.5C 293.232,1072.9 293.566,1071.57 294.5,1070.5C 294.5,1071.5 294.5,1072.5 294.5,1073.5C 297.833,1073.5 301.167,1073.5 304.5,1073.5C 304.5,1072.5 304.5,1071.5 304.5,1070.5C 301.5,1070.5 298.5,1070.5 295.5,1070.5C 295.334,1061.49 295.5,1052.49 296,1043.5C 295.86,1051.9 296.693,1059.9 298.5,1067.5 Z"/></g>
<g><path style="opacity:1" fill="#373739" d="M 300.5,1043.5 C 301.167,1043.5 301.833,1043.5 302.5,1043.5C 302.5,1051.83 302.5,1060.17 302.5,1068.5C 301.5,1068.5 300.5,1068.5 299.5,1068.5C 299.5,1068.17 299.5,1067.83 299.5,1067.5C 299.174,1059.32 299.508,1051.32 300.5,1043.5 Z"/></g>
<g><path style="opacity:1" fill="#707073" d="M 302.5,1043.5 C 302.833,1043.5 303.167,1043.5 303.5,1043.5C 303.5,1051.5 303.5,1059.5 303.5,1067.5C 303.38,1068.59 302.713,1069.25 301.5,1069.5C 300.584,1069.46 299.917,1069.12 299.5,1068.5C 300.5,1068.5 301.5,1068.5 302.5,1068.5C 302.5,1060.17 302.5,1051.83 302.5,1043.5 Z"/></g>
<g><path style="opacity:0.991" fill="#b0b1b3" d="M 323.5,1070.5 C 324.141,1071.48 324.807,1072.48 325.5,1073.5C 325.376,1074.11 325.043,1074.44 324.5,1074.5C 321.5,1074.5 318.5,1074.5 315.5,1074.5C 315.5,1073.17 315.5,1071.83 315.5,1070.5C 318.167,1070.5 320.833,1070.5 323.5,1070.5 Z"/></g>
<g><path style="opacity:0.984" fill="#dedee0" d="M 307.5,1042.5 C 308.167,1042.5 308.833,1042.5 309.5,1042.5C 310.493,1051.32 310.827,1060.32 310.5,1069.5C 314.571,1069.77 318.571,1069.43 322.5,1068.5C 323.298,1068.96 323.631,1069.62 323.5,1070.5C 320.833,1070.5 318.167,1070.5 315.5,1070.5C 315.5,1071.83 315.5,1073.17 315.5,1074.5C 318.5,1074.5 321.5,1074.5 324.5,1074.5C 324.5,1075.83 324.5,1077.17 324.5,1078.5C 317.56,1078.46 310.727,1077.79 304,1076.5C 301.925,1077.13 299.759,1077.47 297.5,1077.5C 293.614,1077.55 289.947,1076.88 286.5,1075.5C 286.473,1077.2 285.806,1078.53 284.5,1079.5C 283.833,1079.5 283.167,1079.5 282.5,1079.5C 281.883,1077.32 280.883,1075.32 279.5,1073.5C 279.942,1072.26 280.609,1071.26 281.5,1070.5C 282.919,1069.55 284.585,1069.22 286.5,1069.5C 286.5,1070.5 286.5,1071.5 286.5,1072.5C 287.5,1072.5 288.5,1072.5 289.5,1072.5C 289.5,1071.5 289.5,1070.5 289.5,1069.5C 291.292,1069.63 292.958,1069.3 294.5,1068.5C 294.5,1069.17 294.5,1069.83 294.5,1070.5C 293.566,1071.57 293.232,1072.9 293.5,1074.5C 297.5,1074.5 301.5,1074.5 305.5,1074.5C 305.5,1072.83 305.5,1071.17 305.5,1069.5C 306.833,1069.5 308.167,1069.5 309.5,1069.5C 309.831,1060.81 309.498,1052.14 308.5,1043.5C 307.502,1051.47 307.169,1059.47 307.5,1067.5C 306.167,1067.5 304.833,1067.5 303.5,1067.5C 303.5,1059.5 303.5,1051.5 303.5,1043.5C 304.568,1042.57 305.901,1042.23 307.5,1042.5 Z"/></g>
<g><path style="opacity:1" fill="#3f4042" d="M 294.5,1070.5 C 294.833,1070.5 295.167,1070.5 295.5,1070.5C 298.5,1070.5 301.5,1070.5 304.5,1070.5C 304.5,1071.5 304.5,1072.5 304.5,1073.5C 301.167,1073.5 297.833,1073.5 294.5,1073.5C 294.5,1072.5 294.5,1071.5 294.5,1070.5 Z"/></g>
<g><path style="opacity:1" fill="#a0a1a6" d="M 281.5,1070.5 C 282.833,1070.5 284.167,1070.5 285.5,1070.5C 285.5,1071.83 285.5,1073.17 285.5,1074.5C 284.167,1074.5 282.833,1074.5 281.5,1074.5C 281.5,1073.17 281.5,1071.83 281.5,1070.5 Z"/></g>
</svg>
